{
    "asset" : {
        "extensions" : {
            "ASOBO_normal_map_convention" : {
                "tangent_space_convention" : "DirectX"
            }
        },
        "generator" : "Extended Khronos glTF Blender I/O v1.0.0",
        "version" : "2.0"
    },
    "extensionsUsed" : [
        "ASOBO_normal_map_convention"
    ],
    "scene" : 0,
    "scenes" : [
        {
            "name" : "Scene",
            "nodes" : [
                0,
                1
            ]
        }
    ],
    "nodes" : [
        {
            "mesh" : 0,
            "name" : "Interior",
            "translation" : [
                -0.00030099975992925465,
                0.2654489576816559,
                -0.6313661932945251
            ]
        },
        {
            "mesh" : 1,
            "name" : "Screens",
            "translation" : [
                -0.00030099975992925465,
                0.2654489576816559,
                -0.6313661932945251
            ]
        }
    ],
    "animations" : [
        {
            "channels" : [
                {
                    "sampler" : 0,
                    "target" : {
                        "node" : 0,
                        "path" : "scale"
                    }
                },
                {
                    "sampler" : 1,
                    "target" : {
                        "node" : 1,
                        "path" : "scale"
                    }
                }
            ],
            "name" : "All Animations",
            "samplers" : [
                {
                    "input" : 15,
                    "interpolation" : "LINEAR",
                    "output" : 16
                },
                {
                    "input" : 15,
                    "interpolation" : "LINEAR",
                    "output" : 17
                }
            ]
        }
    ],
    "materials" : [
        {
            "emissiveFactor" : [
                0,
                0,
                0
            ],
            "name" : "COCKPIT",
            "pbrMetallicRoughness" : {}
        },
        {
            "emissiveFactor" : [
                1,
                1,
                1
            ],
            "name" : "$SCREEN_1",
            "pbrMetallicRoughness" : {
                "baseColorFactor" : [
                    1,
                    1,
                    1,
                    1
                ],
                "metallicFactor" : 1,
                "roughnessFactor" : 1
            }
        },
        {
            "emissiveFactor" : [
                1,
                1,
                1
            ],
            "name" : "$SCREEN_2",
            "pbrMetallicRoughness" : {
                "baseColorFactor" : [
                    1,
                    1,
                    1,
                    1
                ],
                "metallicFactor" : 1,
                "roughnessFactor" : 1
            }
        }
    ],
    "meshes" : [
        {
            "name" : "x0_Interior",
            "primitives" : [
                {
                    "attributes" : {
                        "POSITION" : 0,
                        "NORMAL" : 1,
                        "TEXCOORD_0" : 2,
                        "TEXCOORD_1" : 3
                    },
                    "indices" : 4,
                    "material" : 0
                }
            ]
        },
        {
            "name" : "x0_Screens",
            "primitives" : [
                {
                    "attributes" : {
                        "POSITION" : 5,
                        "NORMAL" : 6,
                        "TEXCOORD_0" : 7,
                        "TEXCOORD_1" : 8
                    },
                    "indices" : 9,
                    "material" : 1
                },
                {
                    "attributes" : {
                        "POSITION" : 10,
                        "NORMAL" : 11,
                        "TEXCOORD_0" : 12,
                        "TEXCOORD_1" : 13
                    },
                    "indices" : 14,
                    "material" : 2
                }
            ]
        }
    ],
    "accessors" : [
        {
            "bufferView" : 0,
            "componentType" : 5126,
            "count" : 24186,
            "max" : [
                0.6318649053573608,
                0.7000691294670105,
                1.8482983112335205
            ],
            "min" : [
                -0.6318649053573608,
                -0.6949516534805298,
                -1.8482983112335205
            ],
            "type" : "VEC3"
        },
        {
            "bufferView" : 1,
            "componentType" : 5126,
            "count" : 24186,
            "type" : "VEC3"
        },
        {
            "bufferView" : 2,
            "componentType" : 5126,
            "count" : 24186,
            "type" : "VEC2"
        },
        {
            "bufferView" : 3,
            "componentType" : 5126,
            "count" : 24186,
            "type" : "VEC2"
        },
        {
            "bufferView" : 4,
            "componentType" : 5123,
            "count" : 24186,
            "type" : "SCALAR"
        },
        {
            "bufferView" : 5,
            "componentType" : 5126,
            "count" : 6,
            "max" : [
                0.3587583899497986,
                0.22908875346183777,
                1.5159425735473633
            ],
            "min" : [
                0.15653590857982635,
                0.0699201226234436,
                1.4963918924331665
            ],
            "type" : "VEC3"
        },
        {
            "bufferView" : 6,
            "componentType" : 5126,
            "count" : 6,
            "type" : "VEC3"
        },
        {
            "bufferView" : 7,
            "componentType" : 5126,
            "count" : 6,
            "type" : "VEC2"
        },
        {
            "bufferView" : 8,
            "componentType" : 5126,
            "count" : 6,
            "type" : "VEC2"
        },
        {
            "bufferView" : 9,
            "componentType" : 5123,
            "count" : 6,
            "type" : "SCALAR"
        },
        {
            "bufferView" : 10,
            "componentType" : 5126,
            "count" : 12,
            "max" : [
                0.10306397080421448,
                0.22908875346183777,
                1.5159425735473633
            ],
            "min" : [
                -0.3572525680065155,
                0.0699201226234436,
                1.4963918924331665
            ],
            "type" : "VEC3"
        },
        {
            "bufferView" : 11,
            "componentType" : 5126,
            "count" : 12,
            "type" : "VEC3"
        },
        {
            "bufferView" : 12,
            "componentType" : 5126,
            "count" : 12,
            "type" : "VEC2"
        },
        {
            "bufferView" : 13,
            "componentType" : 5126,
            "count" : 12,
            "type" : "VEC2"
        },
        {
            "bufferView" : 14,
            "componentType" : 5123,
            "count" : 12,
            "type" : "SCALAR"
        },
        {
            "bufferView" : 15,
            "componentType" : 5126,
            "count" : 161,
            "max" : [
                6.666666666666667
            ],
            "min" : [
                0
            ],
            "type" : "SCALAR"
        },
        {
            "bufferView" : 16,
            "componentType" : 5126,
            "count" : 161,
            "type" : "VEC3"
        },
        {
            "bufferView" : 17,
            "componentType" : 5126,
            "count" : 161,
            "type" : "VEC3"
        }
    ],
    "bufferViews" : [
        {
            "buffer" : 0,
            "byteLength" : 290232,
            "byteOffset" : 0
        },
        {
            "buffer" : 0,
            "byteLength" : 290232,
            "byteOffset" : 290232
        },
        {
            "buffer" : 0,
            "byteLength" : 193488,
            "byteOffset" : 580464
        },
        {
            "buffer" : 0,
            "byteLength" : 193488,
            "byteOffset" : 773952
        },
        {
            "buffer" : 0,
            "byteLength" : 48372,
            "byteOffset" : 967440
        },
        {
            "buffer" : 0,
            "byteLength" : 72,
            "byteOffset" : 1015812
        },
        {
            "buffer" : 0,
            "byteLength" : 72,
            "byteOffset" : 1015884
        },
        {
            "buffer" : 0,
            "byteLength" : 48,
            "byteOffset" : 1015956
        },
        {
            "buffer" : 0,
            "byteLength" : 48,
            "byteOffset" : 1016004
        },
        {
            "buffer" : 0,
            "byteLength" : 12,
            "byteOffset" : 1016052
        },
        {
            "buffer" : 0,
            "byteLength" : 144,
            "byteOffset" : 1016064
        },
        {
            "buffer" : 0,
            "byteLength" : 144,
            "byteOffset" : 1016208
        },
        {
            "buffer" : 0,
            "byteLength" : 96,
            "byteOffset" : 1016352
        },
        {
            "buffer" : 0,
            "byteLength" : 96,
            "byteOffset" : 1016448
        },
        {
            "buffer" : 0,
            "byteLength" : 24,
            "byteOffset" : 1016544
        },
        {
            "buffer" : 0,
            "byteLength" : 644,
            "byteOffset" : 1016568
        },
        {
            "buffer" : 0,
            "byteLength" : 1932,
            "byteOffset" : 1017212
        },
        {
            "buffer" : 0,
            "byteLength" : 1932,
            "byteOffset" : 1019144
        }
    ],
    "buffers" : [
        {
            "byteLength" : 1021076,
            "uri" : "GaugeAircraft_Interior_LOD00.bin"
        }
    ]
}
